<?xml version="1.0" encoding="utf-8"?>
<!-- Generator: Adobe Illustrator 15.1.0, SVG Export Plug-In . SVG Version: 6.00 Build 0)  -->
<!DOCTYPE svg PUBLIC "-//W3C//DTD SVG 1.1//EN" "http://www.w3.org/Graphics/SVG/1.1/DTD/svg11.dtd">
<svg version="1.1" id="_x32_" xmlns="http://www.w3.org/2000/svg" xmlns:xlink="http://www.w3.org/1999/xlink" x="0px" y="0px"
	 width="512px" height="512px" viewBox="0 0 512 512" style="enable-background:new 0 0 512 512;" xml:space="preserve">
<style type="text/css">
<![CDATA[
	.st0{fill:#4B4B4B;}
]]>
</style>
<g>
	<path class="st0" d="M353.109,251.672L256,123.391l-97.109,128.281L49.906,174.656l39.156,302.5H256h166.938l10.344-79.969h0.031
		l1.453-11.484l27.328-211.047L353.109,251.672z M131.188,290.875l37.938,26.797l28.031-37.031L256,202.922l58.844,77.719
		l28.031,37.031l37.938-26.797L400.438,277l-11.406,88.188h-0.047h-266h-0.016L111.563,277L131.188,290.875z M256,429.156H131.25
		l-4.125-31.969h257.75l-4.125,31.969H256z"/>
	<path class="st0" d="M61.188,116.688c0-16.891-13.703-30.594-30.594-30.594C13.688,86.094,0,99.797,0,116.688
		s13.688,30.594,30.594,30.594C47.484,147.281,61.188,133.578,61.188,116.688z"/>
	<path class="st0" d="M481.406,86.094c-16.891,0-30.594,13.703-30.594,30.594s13.703,30.594,30.594,30.594
		c16.906,0,30.594-13.703,30.594-30.594S498.313,86.094,481.406,86.094z"/>
	<path class="st0" d="M256,96.016c16.891,0,30.594-13.688,30.594-30.578c0-16.906-13.703-30.594-30.594-30.594
		s-30.594,13.688-30.594,30.594C225.406,82.328,239.109,96.016,256,96.016z"/>
</g>
</svg>
